<mxfile host="65bd71144e" modified="2020-10-29T03:50:16.882Z" agent="5.0 (X11; Linux x86_64) AppleWebKit/537.36 (KHTML, like Gecko) Code/1.50.1 Chrome/83.0.4103.122 Electron/9.2.1 Safari/537.36" version="13.6.5" etag="pfFneNUz4n5leyyQE0wb">
    <diagram id="ov6Mq7M5gC4mkHtnVyKY" name="Page-1">
        <mxGraphModel dx="1044" dy="795" grid="1" gridSize="10" guides="1" tooltips="1" connect="1" arrows="1" fold="1" page="1" pageScale="1" pageWidth="827" pageHeight="1169" background="#DAD2D8" math="0" shadow="0">
            <root>
                <mxCell id="0"/>
                <mxCell id="1" parent="0"/>
                <mxCell id="2" value="" style="rounded=0;whiteSpace=wrap;html=1;fillColor=#FAE5C7;strokeColor=#0F8B8D;fontColor=#143642;" vertex="1" parent="1">
                    <mxGeometry x="90" y="210" width="550" height="400" as="geometry"/>
                </mxCell>
                <mxCell id="3" value="" style="rounded=1;whiteSpace=wrap;html=1;fillColor=#FAE5C7;strokeColor=#0F8B8D;fontColor=#143642;" vertex="1" parent="1">
                    <mxGeometry x="130" y="240" width="220" height="210" as="geometry"/>
                </mxCell>
                <mxCell id="4" value="write" style="edgeStyle=orthogonalEdgeStyle;rounded=0;orthogonalLoop=1;jettySize=auto;html=1;exitX=0.5;exitY=1;exitDx=0;exitDy=0;entryX=0.5;entryY=0;entryDx=0;entryDy=0;strokeColor=#A8201A;fontColor=#143642;labelBackgroundColor=#DAD2D8;" edge="1" parent="1" source="5" target="9">
                    <mxGeometry relative="1" as="geometry"/>
                </mxCell>
                <mxCell id="5" value="app-container" style="rounded=0;whiteSpace=wrap;html=1;fillColor=#FAE5C7;strokeColor=#0F8B8D;fontColor=#143642;" vertex="1" parent="1">
                    <mxGeometry x="150" y="280" width="80" height="60" as="geometry"/>
                </mxCell>
                <mxCell id="6" style="edgeStyle=orthogonalEdgeStyle;rounded=0;orthogonalLoop=1;jettySize=auto;html=1;exitX=0.5;exitY=0;exitDx=0;exitDy=0;entryX=0.5;entryY=1;entryDx=0;entryDy=0;strokeColor=#A8201A;fontColor=#143642;labelBackgroundColor=#DAD2D8;" edge="1" parent="1" source="7" target="10">
                    <mxGeometry relative="1" as="geometry"/>
                </mxCell>
                <mxCell id="7" value="log-agent-container" style="rounded=0;whiteSpace=wrap;html=1;fillColor=#FAE5C7;strokeColor=#0F8B8D;fontColor=#143642;" vertex="1" parent="1">
                    <mxGeometry x="250" y="280" width="80" height="60" as="geometry"/>
                </mxCell>
                <mxCell id="8" value="read" style="edgeStyle=orthogonalEdgeStyle;rounded=0;orthogonalLoop=1;jettySize=auto;html=1;exitX=0.5;exitY=0;exitDx=0;exitDy=0;entryX=0.5;entryY=1;entryDx=0;entryDy=0;strokeColor=#A8201A;fontColor=#143642;labelBackgroundColor=#DAD2D8;" edge="1" parent="1" source="9" target="7">
                    <mxGeometry relative="1" as="geometry"/>
                </mxCell>
                <mxCell id="9" value="empty-dir volume" style="rounded=0;whiteSpace=wrap;html=1;fillColor=#FAE5C7;strokeColor=#0F8B8D;fontColor=#143642;" vertex="1" parent="1">
                    <mxGeometry x="180" y="430" width="120" height="40" as="geometry"/>
                </mxCell>
                <mxCell id="10" value="digger or logbook" style="ellipse;whiteSpace=wrap;html=1;fillColor=#FAE5C7;strokeColor=#0F8B8D;fontColor=#143642;" vertex="1" parent="1">
                    <mxGeometry x="380" y="40" width="120" height="80" as="geometry"/>
                </mxCell>
                <mxCell id="11" style="edgeStyle=orthogonalEdgeStyle;rounded=0;orthogonalLoop=1;jettySize=auto;html=1;exitX=0.5;exitY=0;exitDx=0;exitDy=0;entryX=0.5;entryY=1;entryDx=0;entryDy=0;strokeColor=#A8201A;fontColor=#143642;labelBackgroundColor=#DAD2D8;" edge="1" parent="1" source="12" target="10">
                    <mxGeometry relative="1" as="geometry"/>
                </mxCell>
                <mxCell id="12" value="" style="rounded=1;whiteSpace=wrap;html=1;fillColor=#FAE5C7;strokeColor=#0F8B8D;fontColor=#143642;" vertex="1" parent="1">
                    <mxGeometry x="380" y="240" width="220" height="210" as="geometry"/>
                </mxCell>
                <mxCell id="13" value="write" style="edgeStyle=orthogonalEdgeStyle;rounded=0;orthogonalLoop=1;jettySize=auto;html=1;exitX=0.5;exitY=1;exitDx=0;exitDy=0;entryX=0.5;entryY=0;entryDx=0;entryDy=0;strokeColor=#A8201A;fontColor=#143642;labelBackgroundColor=#DAD2D8;" edge="1" parent="1" source="14" target="18">
                    <mxGeometry relative="1" as="geometry"/>
                </mxCell>
                <mxCell id="14" value="app-container" style="rounded=0;whiteSpace=wrap;html=1;fillColor=#FAE5C7;strokeColor=#0F8B8D;fontColor=#143642;" vertex="1" parent="1">
                    <mxGeometry x="410" y="280" width="80" height="60" as="geometry"/>
                </mxCell>
                <mxCell id="15" value="log-agent-container" style="rounded=0;whiteSpace=wrap;html=1;fillColor=#FAE5C7;strokeColor=#0F8B8D;fontColor=#143642;" vertex="1" parent="1">
                    <mxGeometry x="510" y="280" width="80" height="60" as="geometry"/>
                </mxCell>
                <mxCell id="16" style="edgeStyle=orthogonalEdgeStyle;rounded=0;orthogonalLoop=1;jettySize=auto;html=1;exitX=0.5;exitY=0;exitDx=0;exitDy=0;entryX=0.5;entryY=1;entryDx=0;entryDy=0;strokeColor=#A8201A;fontColor=#143642;labelBackgroundColor=#DAD2D8;" edge="1" parent="1" source="18" target="15">
                    <mxGeometry relative="1" as="geometry"/>
                </mxCell>
                <mxCell id="17" value="read" style="edgeLabel;html=1;align=center;verticalAlign=middle;resizable=0;points=[];fontColor=#143642;labelBackgroundColor=#DAD2D8;" vertex="1" connectable="0" parent="16">
                    <mxGeometry x="0.1857" y="1" relative="1" as="geometry">
                        <mxPoint as="offset"/>
                    </mxGeometry>
                </mxCell>
                <mxCell id="18" value="empty-dir volume" style="rounded=0;whiteSpace=wrap;html=1;fillColor=#FAE5C7;strokeColor=#0F8B8D;fontColor=#143642;" vertex="1" parent="1">
                    <mxGeometry x="440" y="430" width="120" height="40" as="geometry"/>
                </mxCell>
                <mxCell id="19" value="" style="rounded=0;whiteSpace=wrap;html=1;dashed=1;fillColor=none;strokeColor=#0F8B8D;fontColor=#143642;" vertex="1" parent="1">
                    <mxGeometry x="140" y="420" width="450" height="60" as="geometry"/>
                </mxCell>
                <mxCell id="20" value="pod1" style="text;html=1;strokeColor=none;fillColor=none;align=center;verticalAlign=middle;whiteSpace=wrap;rounded=0;dashed=1;fontColor=#143642;" vertex="1" parent="1">
                    <mxGeometry x="160" y="250" width="40" height="20" as="geometry"/>
                </mxCell>
                <mxCell id="21" value="pod2" style="text;html=1;strokeColor=none;fillColor=none;align=center;verticalAlign=middle;whiteSpace=wrap;rounded=0;dashed=1;fontColor=#143642;" vertex="1" parent="1">
                    <mxGeometry x="400" y="250" width="40" height="20" as="geometry"/>
                </mxCell>
                <mxCell id="22" value="node1" style="text;html=1;strokeColor=none;fillColor=none;align=center;verticalAlign=middle;whiteSpace=wrap;rounded=0;dashed=1;fontColor=#143642;" vertex="1" parent="1">
                    <mxGeometry x="100" y="220" width="40" height="20" as="geometry"/>
                </mxCell>
                <mxCell id="23" value="host disk" style="text;html=1;strokeColor=none;fillColor=none;align=center;verticalAlign=middle;whiteSpace=wrap;rounded=0;dashed=1;fontColor=#143642;" vertex="1" parent="1">
                    <mxGeometry x="330" y="450" width="60" height="20" as="geometry"/>
                </mxCell>
                <mxCell id="24" value="kubelet/docker" style="rounded=1;whiteSpace=wrap;html=1;sketch=0;fillColor=#FAE5C7;strokeColor=#0F8B8D;fontColor=#143642;" vertex="1" parent="1">
                    <mxGeometry x="180" y="530" width="120" height="55" as="geometry"/>
                </mxCell>
                <mxCell id="27" value="find" style="edgeStyle=orthogonalEdgeStyle;curved=0;rounded=1;sketch=0;orthogonalLoop=1;jettySize=auto;html=1;exitX=0;exitY=0.5;exitDx=0;exitDy=0;strokeColor=#A8201A;fontColor=#143642;labelBackgroundColor=#DAD2D8;" edge="1" parent="1" source="25" target="24">
                    <mxGeometry relative="1" as="geometry"/>
                </mxCell>
                <mxCell id="28" value="1. query volume info" style="edgeLabel;html=1;align=center;verticalAlign=middle;resizable=0;points=[];fontColor=#143642;labelBackgroundColor=#DAD2D8;" vertex="1" connectable="0" parent="27">
                    <mxGeometry x="0.3167" y="4" relative="1" as="geometry">
                        <mxPoint x="18" y="-4" as="offset"/>
                    </mxGeometry>
                </mxCell>
                <mxCell id="29" style="edgeStyle=orthogonalEdgeStyle;curved=0;rounded=1;sketch=0;orthogonalLoop=1;jettySize=auto;html=1;exitX=0.5;exitY=0;exitDx=0;exitDy=0;entryX=0.222;entryY=0.833;entryDx=0;entryDy=0;entryPerimeter=0;strokeColor=#A8201A;fontColor=#143642;labelBackgroundColor=#DAD2D8;" edge="1" parent="1" source="25" target="19">
                    <mxGeometry relative="1" as="geometry"/>
                </mxCell>
                <mxCell id="32" value="2. logrotate" style="edgeLabel;html=1;align=center;verticalAlign=middle;resizable=0;points=[];fontColor=#143642;labelBackgroundColor=#DAD2D8;" vertex="1" connectable="0" parent="29">
                    <mxGeometry x="-0.147" y="2" relative="1" as="geometry">
                        <mxPoint x="-77" as="offset"/>
                    </mxGeometry>
                </mxCell>
                <mxCell id="33" value="3. clean old files" style="edgeLabel;html=1;align=center;verticalAlign=middle;resizable=0;points=[];fontColor=#143642;labelBackgroundColor=#DAD2D8;" vertex="1" connectable="0" parent="29">
                    <mxGeometry x="-0.5868" y="3" relative="1" as="geometry">
                        <mxPoint x="-43" as="offset"/>
                    </mxGeometry>
                </mxCell>
                <mxCell id="30" style="edgeStyle=orthogonalEdgeStyle;curved=0;rounded=1;sketch=0;orthogonalLoop=1;jettySize=auto;html=1;exitX=0.75;exitY=0;exitDx=0;exitDy=0;entryX=0.8;entryY=0.833;entryDx=0;entryDy=0;entryPerimeter=0;strokeColor=#A8201A;fontColor=#143642;labelBackgroundColor=#DAD2D8;" edge="1" parent="1" source="25" target="19">
                    <mxGeometry relative="1" as="geometry"/>
                </mxCell>
                <mxCell id="25" value="log-cleaner" style="rounded=1;whiteSpace=wrap;html=1;sketch=0;fillColor=#1ba1e2;strokeColor=#006EAF;fontColor=#ffffff;" vertex="1" parent="1">
                    <mxGeometry x="420" y="530" width="120" height="55" as="geometry"/>
                </mxCell>
                <mxCell id="34" value="" style="verticalLabelPosition=bottom;shadow=0;dashed=0;align=center;html=1;verticalAlign=top;shape=mxgraph.electrical.logic_gates.schmitt_trigger;rounded=0;sketch=0;rotation=-180;fillColor=#FAE5C7;strokeColor=#0F8B8D;fontColor=#143642;" vertex="1" parent="1">
                    <mxGeometry x="540" y="547.5" width="30" height="20" as="geometry"/>
                </mxCell>
                <mxCell id="35" value="timer" style="rounded=1;whiteSpace=wrap;html=1;sketch=0;fillColor=#FAE5C7;strokeColor=#0F8B8D;fontColor=#143642;" vertex="1" parent="1">
                    <mxGeometry x="570" y="547.5" width="53" height="20" as="geometry"/>
                </mxCell>
            </root>
        </mxGraphModel>
    </diagram>
</mxfile>